<svg width="329" height="491" viewBox="0 0 329 491" fill="none" xmlns="http://www.w3.org/2000/svg">
<g clip-path="url(#clip0_8_46)">
<path d="M162.174 20.6014C148.881 50.0321 150.875 118.9 167.491 192.476C175.467 227.204 182.113 279.591 182.113 309.021C182.778 370.826 172.808 391.427 131.6 412.029C100.362 427.333 72.4465 423.801 52.5071 401.434C29.9091 375.535 37.8848 345.515 85.7394 278.414C107.673 246.629 126.283 217.787 126.283 213.666C126.283 200.717 114.984 204.837 103.02 221.907C96.3737 231.325 75.7697 255.458 56.495 276.648C11.9636 325.503 0 346.693 0 376.712C0 406.731 12.6283 428.51 43.202 452.643C81.0869 482.073 109.667 490.314 172.808 490.903C221.327 491.491 233.291 489.725 258.548 476.776C274.499 468.535 297.097 452.054 308.396 439.693C327.006 419.092 329 412.617 329 377.889C328.335 332.566 323.018 321.382 252.566 226.027C177.461 124.197 162.838 68.8676 198.065 24.7217C216.675 1.76584 216.675 0 192.083 0C175.467 0 170.814 3.53168 162.174 20.6014Z" fill="#2563EB"/>
</g>
<defs>
<clipPath id="clip0_8_46">
<rect width="329" height="491" fill="white"/>
</clipPath>
</defs>
</svg>
